<svg xmlns="http://www.w3.org/2000/svg" version="1.1" xmlns:xlink="http://www.w3.org/1999/xlink" xmlns:svgjs="http://svgjs.dev/svgjs" width="128" height="128" viewBox="0 0 128 128"><g transform="matrix(0.8046875,0,0,0.8046875,12.221578124999994,13.336957148614559)"><svg viewBox="0 0 96 94" data-background-color="#444444" preserveAspectRatio="xMidYMid meet" height="125" width="128" xmlns="http://www.w3.org/2000/svg" xmlns:xlink="http://www.w3.org/1999/xlink"><g id="tight-bounds" transform="matrix(1,0,0,1,0.25950000000000273,0.3458432301257943)"><svg viewBox="0 0 95.48100000000001 93.30831353974843" height="93.30831353974843" width="95.48100000000001"><g><svg viewBox="0 0 95.48100000000001 93.30831353974843" height="93.30831353974843" width="95.48100000000001"><g><svg viewBox="0 0 95.48100000000001 93.30831353974843" height="93.30831353974843" width="95.48100000000001"><g id="textblocktransform"><svg viewBox="0 0 95.48100000000001 93.30831353974843" height="93.30831353974843" width="95.48100000000001" id="textblock"><g><svg viewBox="0 0 95.48100000000001 93.30831353974843" height="93.30831353974843" width="95.48100000000001"><g><svg viewBox="0 0 95.48100000000001 93.30831353974843" height="93.30831353974843" width="95.48100000000001"><g><svg xmlns="http://www.w3.org/2000/svg" xmlns:xlink="http://www.w3.org/1999/xlink" version="1.1" x="0" y="0" viewBox="4.000293130530451 5.013701634276556 91.05834645160415 88.98629822810108" enable-background="new 0 0 100 100" xml:space="preserve" height="93.30831353974843" width="95.48100000000001" class="icon-icon-0" data-fill-palette-color="accent" id="icon-0"></svg></g></svg></g></svg></g></svg></g></svg></g></svg></g><defs></defs><mask id="cdc9c502-36f5-4ccf-9dae-b83d6f83be5b"><g id="SvgjsG10486"><svg viewBox="0 0 95.48100000000001 93.30831353974843" height="93.30831353974843" width="95.48100000000001"><g><svg viewBox="0 0 95.48100000000001 93.30831353974843" height="93.30831353974843" width="95.48100000000001"><g><svg viewBox="0 0 95.48100000000001 93.30831353974843" height="93.30831353974843" width="95.48100000000001"><g id="SvgjsG10485"><svg viewBox="0 0 95.48100000000001 93.30831353974843" height="93.30831353974843" width="95.48100000000001" id="SvgjsSvg10484"><g><svg viewBox="0 0 95.48100000000001 93.30831353974843" height="93.30831353974843" width="95.48100000000001"><g><svg viewBox="0 0 95.48100000000001 93.30831353974843" height="93.30831353974843" width="95.48100000000001"><g><svg xmlns="http://www.w3.org/2000/svg" xmlns:xlink="http://www.w3.org/1999/xlink" version="1.1" x="0" y="0" viewBox="4.000293130530451 5.013701634276556 91.05834645160415 88.98629822810108" enable-background="new 0 0 100 100" xml:space="preserve" height="93.30831353974843" width="95.48100000000001" class="icon-icon-0" data-fill-palette-color="accent" id="SvgjsSvg10483"><g fill="white"><circle cx="55.538" cy="19.677" r="4.9" fill="white"></circle></g><g fill="white"><circle cx="23.472" cy="42.596" r="4.9" fill="white"></circle></g><g fill="white"><circle cx="45.736" cy="65.145" r="4.9" fill="white"></circle></g><g fill="white"><circle cx="12.968" cy="82.662" r="4.9" fill="white"></circle></g><g fill="white"><circle cx="81.493" cy="25.552" r="4.9" fill="white"></circle></g><g fill="white"><circle cx="47.69" cy="89.1" r="4.9" fill="white"></circle></g><g fill="white"><path d="M12.968 83.811A1.16 1.16 0 0 1 12.264 83.571 1.17 1.17 0 0 1 11.861 82.971L4.046 56.078A1.15 1.15 0 0 1 4.484 54.82L55.687 18.434A1.152 1.152 0 0 1 57.303 20.021L16.579 79.428 45.194 64.131A1.16 1.16 0 0 1 45.736 63.996H92.342L80.492 26.358 58.655 7.024A1.15 1.15 0 0 1 60.179 5.302L82.254 24.847C82.41 24.986 82.526 25.164 82.589 25.363L95.006 64.8C95.115 65.148 95.053 65.529 94.836 65.823A1.15 1.15 0 0 1 93.909 66.294H46.024L13.532 83.664A1.2 1.2 0 0 1 12.968 83.811M6.482 56.221L13.394 80.006 51.75 24.053z" fill="white"></path></g><g fill="white"><path d="M45.737 66.295C45.66 66.295 45.582 66.287 45.504 66.272H45.502L45.455 66.26C45.452 66.26 45.451 66.26 45.449 66.258A1.14 1.14 0 0 1 44.91 65.946L10.716 31.75 6.281 55.965A1.15 1.15 0 0 1 4.019 55.551L8.848 29.181A1.148 1.148 0 0 1 10.791 28.575L45.083 62.867 54.979 20.211 26.484 13.027A1.148 1.148 0 0 1 26.565 10.78L59.218 5.031A1.15 1.15 0 0 1 60.537 6.423L57.727 18.532 81.773 24.594A1.152 1.152 0 0 1 82.343 26.481L46.603 65.9A1 1 0 0 1 46.379 66.097L46.378 66.099H46.376L46.375 66.101H46.374L46.325 66.132H46.324L46.322 66.134H46.32A1.14 1.14 0 0 1 45.737 66.295M57.209 20.773L47.855 61.096 79.354 26.356zM32.262 12.112L55.499 17.97 57.905 7.597z" fill="white"></path></g><g fill="white"><path d="M47.69 90.25C47.621 90.25 47.55 90.244 47.48 90.23L12.758 83.791A1.15 1.15 0 0 1 13.177 81.531L46.422 87.695 44.602 65.388 25.682 12.298A1.15 1.15 0 1 1 27.848 11.526L46.819 64.76C46.852 64.854 46.874 64.951 46.881 65.053L48.836 89.006A1.153 1.153 0 0 1 47.69 90.25" fill="white"></path></g><g fill="white"><path d="M47.689 90.25A1.152 1.152 0 0 1 46.675 88.558L80.478 25.167A1.151 1.151 0 0 1 82.508 26.249L48.705 89.641A1.15 1.15 0 0 1 47.689 90.25" fill="white"></path></g></svg></g></svg></g></svg></g></svg></g></svg></g></svg></g><defs><mask></mask></defs></svg><rect width="95.48100000000001" height="93.30831353974843" fill="black" stroke="none" visibility="hidden"></rect></g></mask><linearGradient x1="0" x2="1" y1="0.5" y2="0.5" id="265b0214-234f-4454-a0da-641ce2bbdbb7"><stop stop-color="#ffa62e" offset="0"></stop><stop stop-color="#f71b3d" offset="1"></stop></linearGradient><rect width="95.48100000000001" height="93.30831353974843" fill="url(#265b0214-234f-4454-a0da-641ce2bbdbb7)" mask="url(#cdc9c502-36f5-4ccf-9dae-b83d6f83be5b)" data-fill-palette-color="accent"></rect></svg><rect width="95.48100000000001" height="93.30831353974843" fill="none" stroke="none" visibility="hidden"></rect></g></svg></g></svg>